<svg xmlns:inkscape="http://www.inkscape.org/namespaces/inkscape" xmlns:sodipodi="http://sodipodi.sourceforge.net/DTD/sodipodi-0.dtd" xmlns="http://www.w3.org/2000/svg" xmlns:svg="http://www.w3.org/2000/svg" version="1.1" id="svg235" inkscape:version="1.2 (dc2aedaf03, 2022-05-15)" sodipodi:docname="Ez_pequeno.svg" viewBox="36.71 27.95 54.44 35.74">
  <sodipodi:namedview id="namedview237" pagecolor="#ffffff" bordercolor="#000000" borderopacity="0.25" inkscape:showpageshadow="2" inkscape:pageopacity="0.0" inkscape:pagecheckerboard="0" inkscape:deskcolor="#d1d1d1" inkscape:document-units="mm" showgrid="false" inkscape:zoom="0.46769781" inkscape:cx="397.69269" inkscape:cy="562.32891" inkscape:window-width="1366" inkscape:window-height="705" inkscape:window-x="-8" inkscape:window-y="-8" inkscape:window-maximized="1" inkscape:current-layer="layer1"/>
  <defs id="defs232"/>
  <g inkscape:label="Camada 1" inkscape:groupmode="layer" id="layer1">
    <g id="g1450" transform="translate(18.438599,-25.504561)" style="fill:#f27649;fill-opacity:1">
      <path style="fill:#f27649;fill-opacity:1;stroke-width:0.264583" d="m 19.36317,89.012547 c -0.316854,-0.06168 -0.704701,-0.2671 -0.861882,-0.456491 -0.199625,-0.240536 -0.265243,-5.392079 -0.217651,-17.087368 l 0.06813,-16.743018 0.746688,-0.557686 c 0.730643,-0.545702 1.010338,-0.559322 13.015542,-0.633796 l 12.268854,-0.07611 0.278294,1.002151 c 0.730186,2.629422 -0.06177,9.005419 -1.171448,9.431242 -0.326954,0.125463 -6.452023,-0.193697 -9.725951,-0.506794 L 31.97781,63.213883 v 1.86872 1.86872 l 5.260535,-0.162852 5.260534,-0.162853 0.351605,0.63609 c 0.430408,0.778652 0.439698,5.179419 0.01421,6.729681 -0.583594,2.12629 -0.4079,2.067246 -5.95299,2.000584 l -4.933892,-0.05931 v 1.737256 c 0,1.479738 0.06864,1.736635 0.463021,1.733069 0.254662,-0.0024 1.83224,-0.115234 3.505729,-0.25096 3.708124,-0.300739 8.671997,-0.421466 8.877549,-0.215914 0.725914,0.725914 0.517745,7.926954 -0.273381,9.45682 l -0.415673,0.803825 -12.097893,-0.03603 c -6.653843,-0.01982 -12.35714,-0.0865 -12.673994,-0.148182 z M 47.627052,88.52456 c -0.598519,-0.760894 -1.060021,-2.620383 -1.277832,-5.148638 -0.147722,-1.714699 -0.144343,-1.725427 1.140735,-3.623003 0.708893,-1.046768 2.806944,-3.752062 4.662335,-6.011763 1.85539,-2.259702 3.373437,-4.171459 3.373437,-4.248349 0,-0.07689 -1.779185,-0.139801 -3.953748,-0.139801 -3.785754,0 -3.971248,-0.02498 -4.365625,-0.588038 -0.89344,-1.275566 -0.323064,-7.135893 0.804243,-8.263201 0.355801,-0.3558 1.816471,-0.409178 11.197188,-0.409178 10.005835,0 10.8189,0.03413 11.214042,0.47076 0.655526,0.724349 1.243483,3.389359 1.243483,5.636298 0,1.987119 -0.02622,2.067301 -1.328581,4.062312 -0.730718,1.119349 -2.576187,3.690264 -4.101042,5.713144 -1.524852,2.02288 -2.77246,3.741698 -2.77246,3.819599 0,0.0779 1.890421,0.141637 4.200938,0.141637 3.55252,0 4.255931,0.06627 4.557247,0.429328 0.87404,1.053156 0.495466,6.244566 -0.584928,8.021132 l -0.492562,0.809956 H 59.649862 48.155801 Z" id="path1448"/>
    </g>
  </g>
</svg>